<svg width="32" height="32" viewBox="0 0 32 32" fill="none" xmlns="http://www.w3.org/2000/svg">
<path d="M16 21.3333C17.4144 21.3333 18.771 20.7714 19.7712 19.7712C20.7714 18.771 21.3333 17.4145 21.3333 16C21.3333 14.5855 20.7714 13.2289 19.7712 12.2288C18.771 11.2286 17.4144 10.6667 16 10.6667C14.5855 10.6667 13.2289 11.2286 12.2287 12.2288C11.2285 13.2289 10.6666 14.5855 10.6666 16C10.6666 17.4145 11.2285 18.771 12.2287 19.7712C13.2289 20.7714 14.5855 21.3333 16 21.3333Z" stroke="#00296B" stroke-width="1.5625" stroke-linecap="round" stroke-linejoin="round"/>
<path d="M4 21.3333V10.6667C4 8.89856 4.70238 7.20286 5.95262 5.95262C7.20286 4.70238 8.89856 4 10.6667 4H21.3333C23.1014 4 24.7971 4.70238 26.0474 5.95262C27.2976 7.20286 28 8.89856 28 10.6667V21.3333C28 23.1014 27.2976 24.7971 26.0474 26.0474C24.7971 27.2976 23.1014 28 21.3333 28H10.6667C8.89856 28 7.20286 27.2976 5.95262 26.0474C4.70238 24.7971 4 23.1014 4 21.3333Z" stroke="#00296B" stroke-width="1.5625"/>
<path d="M23.3334 8.6803L23.347 8.66534" stroke="#00296B" stroke-width="1.5625" stroke-linecap="round" stroke-linejoin="round"/>
</svg>
