<svg width="34" height="33" fill="none" xmlns="http://www.w3.org/2000/svg"><path d="M6.538 26.125c-.652 0-1.196-.212-1.632-.635-.437-.425-.656-.953-.656-1.586V9.096c0-.633.219-1.16.656-1.584.436-.425.98-.637 1.632-.637h20.924c.652 0 1.196.212 1.632.637.437.423.656.951.656 1.584v14.808c0 .633-.218 1.16-.654 1.584-.438.425-.982.637-1.634.637H6.538ZM17 16.658 5.667 9.467v14.437c0 .247.081.45.245.608a.862.862 0 0 0 .626.238h20.924c.254 0 .463-.08.626-.238a.81.81 0 0 0 .245-.608V9.467L17 16.658Zm0-1.533L27.897 8.25H6.103L17 15.125ZM5.667 9.467V8.25v15.654c0 .247.081.45.245.608a.862.862 0 0 0 .626.238h-.871V9.467Z" fill="#00296B"/></svg>