<svg width="128" height="131" viewBox="0 0 128 131" fill="none" xmlns="http://www.w3.org/2000/svg">
<path fill-rule="evenodd" clip-rule="evenodd" d="M44.9768 38.0842C43.1126 38.1615 41.1507 38.724 39.5135 39.6506C36.8165 41.1771 34.7775 43.5911 33.8023 46.4121C33.3578 47.6979 33.1949 48.665 33.1591 50.2312C33.1265 51.6573 33.223 52.7197 33.5016 54.0003C34.2666 57.5168 36.1683 61.1046 38.9863 64.3474C40.0905 65.618 42.25 67.7351 44.4568 69.7105C44.7224 69.9482 45.0149 70.2109 45.1068 70.2942C46.207 71.2909 49.0774 73.7152 51.5048 75.6978C52.1125 76.1942 52.6098 76.6131 52.6098 76.6286C52.6098 76.6798 53.735 77.7584 54.1698 78.124C54.9775 78.803 56.0596 79.5551 56.2446 79.566C56.5713 79.5853 56.6315 79.5523 57.1732 79.0567C57.4519 78.8017 57.7635 78.5166 57.8656 78.4231C59.2791 77.1298 61.3663 75.4907 62.8986 74.4709C64.5854 73.3481 65.9405 72.6204 68.3401 71.5487C71.2462 70.2508 72.7421 69.6356 73.7445 69.3262C74.3232 69.1475 74.5653 69.0359 74.8817 68.8019C75.954 68.0088 76.8861 66.2369 77.6238 63.5892C77.8211 62.8811 78.2448 61.0365 78.5557 59.5325C78.9304 57.7198 79.0701 56.4226 78.9853 55.543C78.9451 55.1261 78.9466 55.1078 79.0526 54.7024C79.4537 53.17 79.6006 51.8934 79.565 50.2495C79.5313 48.6932 79.366 47.7103 78.9195 46.4121C77.5849 42.5315 74.1989 39.4454 70.1787 38.4453C69.1163 38.181 68.2643 38.0774 67.155 38.0778C66.0182 38.0781 65.1434 38.1852 64.1288 38.4483C62.4077 38.8947 60.8954 39.6557 59.3885 40.8337C58.8661 41.242 57.7462 42.3624 57.3271 42.8959C57.0312 43.2725 56.4501 44.0946 56.381 44.2344C56.3671 44.2624 56.3554 44.2619 56.3411 44.2327C56.2767 44.1009 55.6969 43.282 55.3956 42.8973C54.9769 42.3628 53.8604 41.2451 53.3341 40.8337C51.8272 39.6557 50.3149 38.8947 48.5938 38.4483C47.426 38.1454 46.2806 38.0301 44.9768 38.0842ZM46.3055 39.2858C48.5625 39.4459 50.69 40.2873 52.5541 41.757C53.0789 42.1707 53.914 42.9927 54.3316 43.5066C54.7898 44.0705 55.3118 44.8523 55.6206 45.4376C55.8951 45.9576 55.98 46.0554 56.2178 46.1255C56.3848 46.1747 56.5881 46.1298 56.7438 46.0094C56.7963 45.9687 56.9574 45.7114 57.102 45.4376C57.9704 43.792 59.3697 42.2462 60.9486 41.1881C63.5004 39.478 66.4279 38.8889 69.3802 39.4917C72.1483 40.0568 74.6156 41.6673 76.3335 44.0302C77.3066 45.3686 77.9738 47.0086 78.2466 48.7328C78.3182 49.1856 78.3278 49.3958 78.3296 50.5602C78.3311 51.4556 78.3157 52.0042 78.2815 52.2779C78.2304 52.6871 78.0656 53.6483 78.0427 53.6708C78.0358 53.6776 77.9476 53.6527 77.8467 53.6155C77.5803 53.5173 77.2855 53.4923 76.933 53.538C75.2663 53.7543 74.2427 55.0416 73.7424 57.5511C73.5063 58.735 73.2008 59.8635 72.8198 60.9583C72.5103 61.8478 72.5052 61.8585 72.3617 61.9032C72.2949 61.924 71.814 62.066 71.293 62.2188C70.7721 62.3715 70.2987 62.5117 70.241 62.5302C70.1833 62.5488 70.1415 62.5513 70.1481 62.5357C70.1547 62.5201 70.436 62.2635 70.773 61.9655C71.5092 61.3146 71.7605 61.0401 71.9401 60.6911C72.1188 60.3438 72.1836 60.0888 72.1836 59.7335C72.1836 58.8754 71.6324 58.0914 70.7173 57.6479C69.9 57.2518 69.3523 57.2603 68.1531 57.688C67.1831 58.034 66.1202 58.5671 64.0129 59.765C63.0235 60.3274 62.8212 60.4281 62.4157 60.5604C58.5708 61.8144 55.2382 63.5585 53.0762 65.4482C50.9173 67.335 49.8835 69.6992 50.2147 71.9922C50.2637 72.331 50.4369 73.059 50.5155 73.2559C50.5629 73.3746 50.6234 73.4231 48.7846 71.8714C48.0424 71.2452 46.167 69.6291 45.939 69.4193C45.9166 69.3988 45.733 69.2339 45.5309 69.053C44.0975 67.7696 43.5642 67.2667 41.9481 65.6751C39.9454 63.7027 38.9629 62.5465 37.7703 60.7587C35.8302 57.8503 34.6498 54.728 34.4052 51.8576C34.3408 51.1027 34.3829 49.3363 34.4801 48.7144C34.7661 46.8828 35.4855 45.2006 36.6136 43.7259C38.911 40.7223 42.6177 39.0241 46.3055 39.2858ZM77.4852 54.7634C77.5871 54.8336 77.6989 55.1277 77.7519 55.4645C77.8668 56.1958 77.7306 57.515 77.3508 59.3497C77.0993 60.5647 76.6834 62.4143 76.5455 62.9313C75.8726 65.4532 75.0207 67.1993 74.1488 67.8443C73.9214 68.0125 73.8259 68.053 73.2802 68.2134C71.9242 68.6117 66.6306 70.9244 64.7929 71.9213C63.371 72.6926 61.65 73.8087 60.3171 74.8238C59.9325 75.1168 59.0632 75.8001 59.0357 75.8312C59.0254 75.8427 58.8751 75.9669 58.7015 76.1073C58.4347 76.3229 57.3034 77.3079 56.5035 78.0209L56.2829 78.2175L56.1085 78.0966C54.7347 77.1439 53.388 75.8292 52.5914 74.663C52.0206 73.8273 51.5677 72.7578 51.4382 71.9402C51.3472 71.3651 51.3789 70.4752 51.5086 69.9667C51.9624 68.1865 53.2751 66.593 55.5256 65.0905C57.4367 63.8145 60.0705 62.584 62.7314 61.724C63.3059 61.5383 63.3728 61.5055 64.7372 60.7397C66.785 59.5902 67.3675 59.29 68.2203 58.9451C68.7155 58.7448 69.3869 58.5457 69.5673 58.5457C69.7441 58.5457 70.1352 58.6736 70.3273 58.7942C70.714 59.037 70.9694 59.4111 70.9694 59.7346C70.9694 60.0871 70.774 60.3548 70.0487 60.996C69.0027 61.9209 68.6343 62.248 67.9131 62.8923C66.5148 64.1415 66.4192 64.2267 66.3486 64.2871C66.1862 64.4261 65.5335 65.0154 65.3032 65.2309C64.9534 65.5582 64.8969 65.7909 65.091 66.1039C65.2239 66.3183 65.5982 66.4261 65.8398 66.3194C65.8947 66.2952 66.1692 66.0698 66.4497 65.8186C66.7303 65.5673 67.006 65.3206 67.0625 65.2704C67.1189 65.2201 67.3482 65.0162 67.5719 64.8172L67.9786 64.4554L68.8094 64.2086C69.2663 64.0728 70.4508 63.721 71.4416 63.4267C73.0785 62.9406 73.2539 62.881 73.361 62.7745C73.4455 62.6904 73.5414 62.497 73.6999 62.0908C74.21 60.7833 74.5608 59.5697 74.9146 57.8885C75.1139 56.9415 75.2482 56.4992 75.4713 56.055C75.7502 55.4999 76.0568 55.1439 76.4456 54.9236C76.77 54.7399 77.3266 54.6541 77.4852 54.7634Z" fill="white"/>
<path d="M18.8329 94.5671L19.249 94.0946L21.5007 96.0772C21.7025 96.2549 21.916 96.3598 22.1411 96.3919C22.371 96.4284 22.588 96.4053 22.7918 96.3227C23 96.2351 23.1756 96.1101 23.3186 95.9477C23.4616 95.7853 23.559 95.6002 23.6108 95.3924C23.6676 95.189 23.6636 94.9802 23.5989 94.7659C23.5391 94.556 23.4107 94.3644 23.2138 94.191L22.1802 93.281C21.8849 93.021 21.681 92.7366 21.5684 92.4277C21.4651 92.1184 21.4454 91.8083 21.5093 91.4976C21.5781 91.1912 21.7252 90.91 21.9505 90.6541C22.1759 90.3981 22.4383 90.2142 22.7378 90.1022C23.0466 89.9896 23.3632 89.9625 23.6875 90.0209C24.0211 90.0787 24.3355 90.2376 24.6309 90.4976L26.794 92.4022L26.378 92.8747L24.2517 91.0026C24.0598 90.8336 23.8534 90.7306 23.6327 90.6935C23.4169 90.6607 23.2068 90.6811 23.0023 90.7545C22.8072 90.8273 22.6424 90.94 22.5081 91.0926C22.3737 91.2451 22.2804 91.4207 22.2279 91.6192C22.1804 91.822 22.1841 92.0262 22.239 92.2318C22.3031 92.4368 22.4336 92.626 22.6305 92.7993L23.6715 93.7159C23.9816 93.9889 24.1883 94.2801 24.2916 94.5895C24.3998 94.9032 24.4149 95.2135 24.3369 95.5205C24.268 95.8269 24.1231 96.1056 23.9021 96.3566C23.6551 96.6372 23.3707 96.8411 23.0489 96.9685C22.7364 97.0952 22.4133 97.1297 22.0797 97.0719C21.7511 97.0184 21.4366 96.8595 21.1364 96.5952L18.8329 94.5671Z" fill="white"/>
<path d="M26.8672 101.041C26.5147 100.813 26.2405 100.531 26.0447 100.193C25.8524 99.8505 25.7589 99.4817 25.7642 99.0869C25.7749 98.6957 25.9031 98.31 26.1486 97.9299L27.7342 95.4761L28.3125 95.8498L26.743 98.2788C26.5544 98.5708 26.4558 98.8623 26.4472 99.1535C26.4442 99.4482 26.509 99.7165 26.6416 99.9583C26.7778 100.195 26.9615 100.388 27.1929 100.537C27.4297 100.69 27.6856 100.777 27.9606 100.799C28.2411 100.824 28.5105 100.776 28.7689 100.654C29.0308 100.526 29.2561 100.316 29.4447 100.025L31.0142 97.5955L31.5926 97.9691L30.0071 100.423C29.7615 100.803 29.4598 101.077 29.1021 101.244C28.7498 101.414 28.3779 101.482 27.9863 101.448C27.6038 101.412 27.2308 101.276 26.8672 101.041Z" fill="white"/>
<path d="M36.0019 100.034C36.3244 100.18 36.6004 100.374 36.8297 100.614C37.0617 100.849 37.2349 101.118 37.3493 101.422C37.4696 101.728 37.5205 102.061 37.5019 102.42C37.4861 102.773 37.3916 103.14 37.2184 103.522C36.9991 104.006 36.7082 104.378 36.3454 104.639C35.9826 104.899 35.5877 105.048 35.1606 105.085C34.7395 105.124 34.3229 105.051 33.9107 104.864C33.6598 104.75 33.4412 104.597 33.2548 104.405C33.0684 104.213 32.9208 103.998 32.812 103.762C32.7058 103.519 32.648 103.273 32.6385 103.024L32.6205 103.016L31.3012 105.928L30.674 105.644L32.6063 101.379C32.8391 100.865 33.1398 100.48 33.5085 100.222C33.88 99.9581 34.2839 99.8135 34.7202 99.788C35.1565 99.7625 35.5837 99.8445 36.0019 100.034ZM35.7453 100.576C35.4466 100.441 35.1364 100.387 34.8146 100.414C34.4987 100.444 34.2009 100.561 33.9211 100.765C33.6473 100.972 33.4211 101.273 33.2425 101.667C33.0666 102.055 32.9927 102.425 33.0208 102.776C33.0516 103.121 33.1616 103.427 33.3508 103.693C33.5427 103.952 33.788 104.15 34.0867 104.285C34.3853 104.42 34.6939 104.47 35.0125 104.435C35.337 104.402 35.6391 104.283 35.9189 104.078C36.2014 103.868 36.4279 103.575 36.5984 103.198C36.7743 102.81 36.8469 102.443 36.8161 102.098C36.788 101.747 36.6779 101.442 36.486 101.182C36.2968 100.916 36.0499 100.714 35.7453 100.576Z" fill="white"/>
<path d="M42.7795 102.499C43.1204 102.595 43.4223 102.744 43.6852 102.948C43.95 103.145 44.1617 103.385 44.3205 103.668C44.4856 103.953 44.586 104.274 44.6217 104.632C44.6592 104.983 44.6211 105.36 44.5074 105.764C44.3636 106.276 44.1319 106.687 43.8125 106.999C43.4931 107.312 43.1251 107.518 42.7084 107.619C42.2981 107.721 41.8751 107.711 41.4395 107.589C41.1744 107.514 40.9352 107.396 40.7219 107.234C40.5087 107.071 40.3305 106.882 40.1873 106.664C40.0458 106.44 39.9516 106.206 39.9047 105.961L39.8858 105.956L39.02 109.034L38.3572 108.847L39.6252 104.34C39.7779 103.797 40.0171 103.37 40.3429 103.06C40.6704 102.743 41.0479 102.54 41.4754 102.449C41.9029 102.358 42.3376 102.374 42.7795 102.499ZM42.6075 103.074C42.2919 102.985 41.977 102.978 41.6629 103.053C41.3552 103.13 41.0784 103.291 40.8326 103.535C40.5931 103.781 40.4147 104.112 40.2975 104.529C40.182 104.939 40.1647 105.316 40.2453 105.659C40.3278 105.995 40.4825 106.281 40.7096 106.515C40.9384 106.743 41.2106 106.901 41.5263 106.99C41.8419 107.079 42.1545 107.081 42.464 106.998C42.7799 106.917 43.0607 106.754 43.3065 106.51C43.5541 106.259 43.7339 105.935 43.8458 105.537C43.9612 105.127 43.9777 104.754 43.8953 104.417C43.8146 104.074 43.6598 103.789 43.431 103.561C43.204 103.327 42.9295 103.164 42.6075 103.074Z" fill="white"/>
<path d="M49.0274 109.126C48.5263 109.064 48.0945 108.894 47.7322 108.618C47.3707 108.336 47.1039 107.982 46.9317 107.558C46.7595 107.134 46.7036 106.677 46.764 106.189C46.8244 105.701 46.9898 105.272 47.2601 104.903C47.5305 104.533 47.8751 104.258 48.2937 104.079C48.7132 103.893 49.1735 103.831 49.6746 103.893C50.1758 103.955 50.6038 104.127 50.9589 104.409C51.3212 104.685 51.5884 105.035 51.7606 105.459C51.9401 105.878 51.9992 106.335 51.938 106.829C51.8777 107.317 51.709 107.746 51.4321 108.115C51.1617 108.484 50.8168 108.762 50.3973 108.948C49.9852 109.128 49.5285 109.187 49.0274 109.126ZM49.1011 108.53C49.472 108.576 49.8116 108.529 50.1197 108.388C50.4286 108.242 50.68 108.025 50.8741 107.738C51.0746 107.453 51.1982 107.121 51.2449 106.743C51.2916 106.366 51.2525 106.014 51.1276 105.688C51.0093 105.363 50.8178 105.095 50.5532 104.884C50.2893 104.666 49.972 104.534 49.601 104.488C49.2235 104.442 48.8803 104.492 48.5714 104.639C48.2698 104.78 48.0188 104.993 47.8182 105.279C47.6242 105.565 47.5038 105.897 47.4571 106.275C47.4104 106.652 47.4463 107.004 47.5646 107.329C47.6895 107.655 47.8806 107.926 48.1379 108.143C48.4025 108.354 48.7236 108.483 49.1011 108.53Z" fill="white"/>
<path d="M54.6608 109.414L54.6643 105.823C54.6648 105.377 54.7897 105.03 55.0392 104.781C55.2952 104.526 55.6461 104.398 56.0921 104.398L56.9577 104.399L56.9571 104.999L56.2292 104.999C55.9406 104.998 55.7209 105.077 55.5699 105.234C55.4255 105.391 55.3531 105.614 55.3528 105.903L55.3494 109.414L54.6608 109.414Z" fill="white"/>
<path d="M61.2924 109.117C60.8486 109.16 60.4869 109.067 60.2074 108.838C59.9344 108.607 59.7765 108.274 59.7335 107.836L59.2597 103.01L59.945 102.943L60.4111 107.691C60.4393 107.978 60.5329 108.193 60.6919 108.335C60.8573 108.477 61.0837 108.534 61.3708 108.506L62.3302 108.412L62.3888 109.009L61.2924 109.117ZM58.5701 104.946L58.5115 104.349L61.9183 104.014L61.9769 104.611L58.5701 104.946Z" fill="white"/>
<path d="M69.5656 107.565L68.3285 103.325L67.4786 103.573L67.3106 102.997L68.1604 102.749L67.9538 102.041C67.8289 101.612 67.8511 101.244 68.0205 100.935C68.1944 100.618 68.4954 100.397 68.9235 100.272L70.0189 99.9522L70.1869 100.528L69.2143 100.812C68.9436 100.891 68.7579 101.027 68.6572 101.221C68.5565 101.414 68.5466 101.649 68.6274 101.926L68.812 102.559L70.4456 102.082L70.6137 102.658L68.9801 103.135L70.2172 107.375L69.5656 107.565Z" fill="white"/>
<path d="M76.772 105.161C76.3092 105.363 75.8516 105.438 75.3992 105.385C74.9441 105.326 74.5343 105.158 74.1699 104.881C73.8055 104.603 73.5248 104.239 73.3279 103.789C73.1311 103.338 73.0547 102.885 73.0989 102.429C73.1432 101.973 73.2996 101.561 73.5683 101.193C73.8344 100.82 74.1988 100.532 74.6615 100.329C75.1243 100.127 75.5802 100.057 76.0292 100.118C76.4817 100.171 76.8901 100.336 77.2546 100.614C77.6224 100.882 77.9061 101.245 78.1055 101.702C78.3024 102.153 78.3757 102.607 78.3255 103.066C78.2813 103.521 78.1262 103.936 77.8601 104.31C77.5974 104.675 77.2347 104.959 76.772 105.161ZM76.5318 104.611C76.8743 104.462 77.1424 104.248 77.3359 103.97C77.5268 103.686 77.6327 103.372 77.6536 103.026C77.6805 102.678 77.6178 102.33 77.4655 101.981C77.3133 101.633 77.1004 101.35 76.8267 101.133C76.5591 100.914 76.2577 100.781 75.9224 100.734C75.5845 100.681 75.2443 100.73 74.9017 100.879C74.5532 101.032 74.2834 101.25 74.0925 101.533C73.905 101.808 73.7977 102.12 73.7709 102.468C73.75 102.814 73.8157 103.161 73.968 103.509C74.1202 103.858 74.3301 104.142 74.5977 104.361C74.8713 104.578 75.1741 104.714 75.506 104.769C75.8413 104.816 76.1832 104.764 76.5318 104.611Z" fill="white"/>
<path d="M81.7648 102.538L79.9377 99.447C79.7107 99.0632 79.6411 98.7006 79.7288 98.3592C79.8188 98.0089 80.0558 97.7203 80.4396 97.4933L81.1848 97.0528L81.4902 97.5694L80.8635 97.9398C80.6152 98.0866 80.4661 98.2662 80.4163 98.4784C80.3722 98.6873 80.4236 98.916 80.5705 99.1644L82.3576 102.187L81.7648 102.538Z" fill="white"/>
<path d="M91.4633 95.6355C91.0818 95.986 90.6684 96.2146 90.223 96.3211C89.7731 96.4227 89.3239 96.3991 88.8754 96.2503C88.4268 96.1014 88.0095 95.8169 87.6235 95.3968L84.7547 92.2751L85.2762 91.7959L88.2115 94.99C88.4645 95.2652 88.7531 95.463 89.0776 95.5835C89.4024 95.6947 89.7354 95.7227 90.0765 95.6674C90.4181 95.603 90.7361 95.4354 91.0307 95.1647C91.33 94.8896 91.5238 94.5868 91.612 94.2564C91.7051 93.9215 91.7052 93.5873 91.6126 93.2539C91.5199 92.9204 91.3471 92.6161 91.0942 92.3409L88.1588 89.1468L88.6803 88.6676L91.5491 91.7892C91.9351 92.2093 92.1834 92.6491 92.294 93.1086C92.4046 93.5681 92.3902 94.0177 92.251 94.4574C92.1073 94.8922 91.8447 95.2849 91.4633 95.6355Z" fill="white"/>
<path d="M95.5673 91.3221L89.9545 86.8431L90.384 86.3049L93.7901 89.023L94.827 87.7236L93.9653 85.2866L94.45 84.6792L95.3334 87.2467C95.7417 86.9349 96.1804 86.7899 96.6495 86.8119C97.1185 86.8339 97.5581 87.0085 97.9682 87.3357L98.4449 87.7161L98.0215 88.2466L97.5448 87.8662C97.3039 87.674 97.0457 87.556 96.7701 87.5123C96.4946 87.4686 96.2273 87.4986 95.9683 87.6024C95.7083 87.6969 95.4781 87.8698 95.2777 88.1209L94.2591 89.3972L95.9968 90.7839L95.5673 91.3221Z" fill="white"/>
<path d="M100.141 85.1712L97.0878 83.2813C96.7087 83.0465 96.4787 82.7576 96.398 82.4146C96.3152 82.0625 96.3911 81.6969 96.6259 81.3177L97.0815 80.5817L97.5917 80.8976L97.2086 81.5165C97.0567 81.7618 97.0079 81.99 97.0624 82.2011C97.1202 82.4066 97.2719 82.5853 97.5172 82.7372L100.503 84.5857L100.141 85.1712Z" fill="white"/>
<path d="M103.678 79.0254C103.467 79.4839 103.178 79.8274 102.813 80.056C102.447 80.2847 102.046 80.4029 101.609 80.4108C101.166 80.4159 100.721 80.3154 100.275 80.1094C99.8222 79.9006 99.4613 79.6185 99.1919 79.2631C98.9166 78.905 98.7557 78.5022 98.7094 78.0547C98.6658 77.6013 98.7566 77.1304 98.9819 76.6422C99.1989 76.1717 99.4899 75.8149 99.8549 75.5716C100.223 75.3224 100.625 75.1865 101.061 75.164C101.501 75.1355 101.94 75.223 102.381 75.4262L104.703 76.4976L104.419 77.1139L103.401 76.6442L103.388 76.671C103.529 76.8367 103.65 77.0442 103.751 77.2934C103.847 77.5398 103.895 77.8111 103.896 78.1075C103.899 78.3978 103.826 78.7038 103.678 79.0254ZM103.204 78.6441C103.358 78.3107 103.413 77.9788 103.371 77.6486C103.322 77.3156 103.192 77.0102 102.981 76.7322C102.764 76.4515 102.475 76.2317 102.115 76.0728C101.764 75.9107 101.42 75.835 101.083 75.8455C100.746 75.8561 100.439 75.9494 100.163 76.1253C99.8867 76.3012 99.6689 76.5619 99.5096 76.9073C99.3448 77.2645 99.2866 77.6097 99.3353 77.9426C99.3779 78.2729 99.5105 78.5724 99.7332 78.8412C99.9499 79.1073 100.237 79.3227 100.594 79.4876C100.928 79.6414 101.264 79.7174 101.605 79.7155C101.945 79.7136 102.256 79.6261 102.538 79.4529C102.817 79.271 103.039 79.0014 103.204 78.6441Z" fill="white"/>
<path d="M105.749 73.548L100.985 71.9753L101.201 71.3214L105.965 72.8942L105.749 73.548ZM100.234 71.3647C100.193 71.4892 100.11 71.5828 99.986 71.6453C99.8617 71.7079 99.7373 71.7186 99.6128 71.6775C99.482 71.6344 99.3885 71.5517 99.3321 71.4295C99.2695 71.3052 99.2588 71.1808 99.2999 71.0563C99.3431 70.9255 99.4258 70.832 99.548 70.7756C99.666 70.711 99.7904 70.7003 99.9212 70.7434C100.046 70.7846 100.139 70.8672 100.202 70.9915C100.266 71.1095 100.277 71.2339 100.234 71.3647Z" fill="white"/>
<path d="M106.94 69.7272L104.082 69.1228C103.632 69.0278 103.268 68.8469 102.99 68.5802C102.706 68.3057 102.513 67.9801 102.412 67.6034C102.304 67.2254 102.294 66.8311 102.381 66.4204C102.469 66.0034 102.638 65.6471 102.888 65.3514C103.133 65.048 103.441 64.8315 103.81 64.7018C104.174 64.5643 104.581 64.5431 105.03 64.638L107.888 65.2425L107.746 65.9162L104.916 65.3178C104.576 65.2459 104.272 65.2586 104.003 65.356C103.728 65.452 103.501 65.6083 103.321 65.825C103.143 66.0353 103.024 66.2783 102.966 66.5542C102.909 66.8237 102.919 67.0907 102.997 67.3552C103.069 67.6184 103.211 67.8495 103.424 68.0486C103.63 68.2464 103.906 68.3819 104.253 68.4552L107.082 69.0535L106.94 69.7272Z" fill="white"/>
<path d="M108.474 59.6192C108.438 60.1558 108.308 60.6303 108.084 61.0426C107.854 61.448 107.544 61.7627 107.154 61.9867C106.765 62.2042 106.309 62.2957 105.785 62.2611C105.301 62.2291 104.869 62.102 104.49 61.8797C104.103 61.6571 103.804 61.3613 103.592 60.9924C103.38 60.6169 103.29 60.1903 103.322 59.7127C103.354 59.2219 103.49 58.8135 103.728 58.4875C103.966 58.1615 104.275 57.9223 104.653 57.7698C105.031 57.6173 105.449 57.5562 105.907 57.5865C105.972 57.5908 106.044 57.5988 106.122 57.6106C106.2 57.6223 106.268 57.6366 106.326 57.6536L106.069 61.5503C106.437 61.5549 106.751 61.4705 107.012 61.2972C107.274 61.1238 107.476 60.8908 107.621 60.598C107.765 60.2986 107.849 59.9723 107.872 59.6189L107.956 58.3528L108.555 58.3923L108.474 59.6192ZM105.578 61.5179L105.792 58.2788C105.661 58.2702 105.517 58.2738 105.358 58.2896C105.192 58.3049 105.029 58.3434 104.867 58.405C104.706 58.4601 104.555 58.5455 104.416 58.6611C104.278 58.7703 104.163 58.9171 104.072 59.1017C103.975 59.2793 103.917 59.5023 103.899 59.7705C103.883 60.0192 103.92 60.2484 104.012 60.4582C104.103 60.6679 104.233 60.8474 104.4 60.9965C104.561 61.1451 104.744 61.2656 104.948 61.358C105.153 61.4438 105.363 61.4971 105.578 61.5179Z" fill="white"/>
<path d="M106.593 50.3853C105.691 42.5817 102.989 35.0942 98.7001 28.5131C94.4109 21.932 88.6516 16.4372 81.8763 12.4617C75.101 8.48625 67.4949 6.13887 59.6576 5.6046C51.8202 5.07032 43.9659 6.36377 36.7138 9.38297C29.4617 12.4022 23.01 17.0646 17.8672 23.0027C12.7245 28.9408 9.03135 35.9923 7.07888 43.6013C5.12642 51.2103 4.96802 59.1688 6.61618 66.8495C8.26434 74.5302 11.674 81.723 16.5764 87.8611" stroke="#FFFFFA" stroke-width="0.614796"/>
</svg>
